<svg width="272" height="68" viewBox="0 0 272 68" fill="none" xmlns="http://www.w3.org/2000/svg">
<g filter="url(#filter0_i_1_12)">
<rect width="272" height="68" rx="20" fill="#2A2A2A"/>
</g>
<g filter="url(#filter1_bii_1_12)">
<rect width="272" height="68" rx="20" fill="#2A2A2A" fill-opacity="0.1"/>
</g>
<path d="M47.9466 41V30.696H52.5546C53.6106 30.696 54.5119 30.872 55.2586 31.224C56.0052 31.5653 56.5759 32.12 56.9706 32.888C57.3652 33.6453 57.5626 34.6533 57.5626 35.912C57.5626 37.6827 57.1306 38.9733 56.2666 39.784C55.4026 40.5947 54.1652 41 52.5546 41H47.9466ZM50.9546 38.696H52.1706C52.6719 38.696 53.0932 38.6267 53.4346 38.488C53.7759 38.3387 54.0372 38.0667 54.2186 37.672C54.3999 37.2667 54.4906 36.68 54.4906 35.912C54.4906 35.144 54.4052 34.552 54.2346 34.136C54.0746 33.7093 53.8239 33.416 53.4826 33.256C53.1412 33.0853 52.7039 33 52.1706 33H50.9546V38.696ZM60.8146 41.16C60.3346 41.16 59.8866 41.0747 59.4706 40.904C59.0652 40.7333 58.7399 40.4667 58.4946 40.104C58.2492 39.7413 58.1266 39.2827 58.1266 38.728C58.1266 37.928 58.3932 37.3093 58.9266 36.872C59.4599 36.424 60.2652 36.2 61.3426 36.2H63.3106V36.056C63.3106 35.7573 63.1879 35.5387 62.9426 35.4C62.6972 35.2613 62.2652 35.192 61.6466 35.192C60.7719 35.192 59.9079 35.3253 59.0546 35.592V33.784C59.4386 33.6347 59.9186 33.512 60.4946 33.416C61.0706 33.3093 61.6572 33.256 62.2546 33.256C63.4599 33.256 64.4146 33.5013 65.1186 33.992C65.8226 34.4827 66.1746 35.2613 66.1746 36.328V41H63.5506L63.4066 40.392C63.1399 40.6267 62.7932 40.8133 62.3666 40.952C61.9506 41.0907 61.4332 41.16 60.8146 41.16ZM61.8386 39.4C62.1799 39.4 62.4679 39.3413 62.7026 39.224C62.9479 39.1067 63.1506 38.9627 63.3106 38.792V37.848H61.8546C61.1932 37.848 60.8626 38.1093 60.8626 38.632C60.8626 39.144 61.1879 39.4 61.8386 39.4ZM70.7883 41.16C69.775 41.16 69.039 40.904 68.5803 40.392C68.1216 39.88 67.8923 39.1867 67.8923 38.312V35.64H66.9003V33.416H67.8923V31.864L70.9003 31.144V33.416H72.6443L72.5323 35.64H70.9003V38.088C70.9003 38.408 70.9803 38.6373 71.1403 38.776C71.3003 38.904 71.5456 38.968 71.8763 38.968C72.1856 38.968 72.5003 38.9147 72.8203 38.808V40.808C72.255 41.0427 71.5776 41.16 70.7883 41.16ZM75.9864 41.16C75.5064 41.16 75.0584 41.0747 74.6424 40.904C74.2371 40.7333 73.9118 40.4667 73.6664 40.104C73.4211 39.7413 73.2984 39.2827 73.2984 38.728C73.2984 37.928 73.5651 37.3093 74.0984 36.872C74.6318 36.424 75.4371 36.2 76.5144 36.2H78.4824V36.056C78.4824 35.7573 78.3598 35.5387 78.1144 35.4C77.8691 35.2613 77.4371 35.192 76.8184 35.192C75.9438 35.192 75.0798 35.3253 74.2264 35.592V33.784C74.6104 33.6347 75.0904 33.512 75.6664 33.416C76.2424 33.3093 76.8291 33.256 77.4264 33.256C78.6318 33.256 79.5864 33.5013 80.2904 33.992C80.9944 34.4827 81.3464 35.2613 81.3464 36.328V41H78.7224L78.5784 40.392C78.3118 40.6267 77.9651 40.8133 77.5384 40.952C77.1224 41.0907 76.6051 41.16 75.9864 41.16ZM77.0104 39.4C77.3518 39.4 77.6398 39.3413 77.8744 39.224C78.1198 39.1067 78.3224 38.9627 78.4824 38.792V37.848H77.0264C76.3651 37.848 76.0344 38.1093 76.0344 38.632C76.0344 39.144 76.3598 39.4 77.0104 39.4ZM87.7682 41.16C87.2775 41.16 86.8455 41.096 86.4722 40.968C86.1095 40.8293 85.7735 40.6427 85.4642 40.408L85.3202 41H82.7122V30.216H85.7202V33.688C85.9762 33.5493 86.2749 33.4427 86.6162 33.368C86.9682 33.2933 87.3202 33.256 87.6722 33.256C88.8029 33.256 89.6882 33.56 90.3282 34.168C90.9789 34.7653 91.3042 35.7573 91.3042 37.144C91.3042 38.4987 90.9842 39.5067 90.3442 40.168C89.7042 40.8293 88.8455 41.16 87.7682 41.16ZM86.9042 38.984C87.3735 38.984 87.7095 38.8453 87.9122 38.568C88.1255 38.28 88.2322 37.816 88.2322 37.176C88.2322 36.5253 88.1202 36.072 87.8962 35.816C87.6829 35.56 87.3522 35.432 86.9042 35.432C86.4135 35.432 86.0189 35.5653 85.7202 35.832V38.52C86.0509 38.8293 86.4455 38.984 86.9042 38.984ZM94.7989 41.16C94.3189 41.16 93.8709 41.0747 93.4549 40.904C93.0496 40.7333 92.7243 40.4667 92.4789 40.104C92.2336 39.7413 92.1109 39.2827 92.1109 38.728C92.1109 37.928 92.3776 37.3093 92.9109 36.872C93.4443 36.424 94.2496 36.2 95.3269 36.2H97.2949V36.056C97.2949 35.7573 97.1723 35.5387 96.9269 35.4C96.6816 35.2613 96.2496 35.192 95.6309 35.192C94.7563 35.192 93.8923 35.3253 93.0389 35.592V33.784C93.4229 33.6347 93.9029 33.512 94.4789 33.416C95.0549 33.3093 95.6416 33.256 96.2389 33.256C97.4443 33.256 98.3989 33.5013 99.1029 33.992C99.8069 34.4827 100.159 35.2613 100.159 36.328V41H97.5349L97.3909 40.392C97.1243 40.6267 96.7776 40.8133 96.3509 40.952C95.9349 41.0907 95.4176 41.16 94.7989 41.16ZM95.8229 39.4C96.1643 39.4 96.4523 39.3413 96.6869 39.224C96.9323 39.1067 97.1349 38.9627 97.2949 38.792V37.848H95.8389C95.1776 37.848 94.8469 38.1093 94.8469 38.632C94.8469 39.144 95.1723 39.4 95.8229 39.4ZM104.485 41.16C103.834 41.16 103.221 41.112 102.645 41.016C102.079 40.9307 101.631 40.8187 101.301 40.68V38.52C101.674 38.6907 102.117 38.824 102.629 38.92C103.151 39.016 103.594 39.064 103.957 39.064C104.341 39.064 104.629 39.0533 104.821 39.032C105.023 39.0107 105.125 38.92 105.125 38.76C105.125 38.5787 104.949 38.44 104.597 38.344C104.245 38.248 103.802 38.1093 103.269 37.928C102.575 37.6827 102.058 37.3947 101.717 37.064C101.375 36.7333 101.205 36.2533 101.205 35.624C101.205 34.8667 101.503 34.2853 102.101 33.88C102.698 33.464 103.637 33.256 104.917 33.256C105.407 33.256 105.914 33.2933 106.437 33.368C106.959 33.4427 107.37 33.528 107.669 33.624V35.736C107.349 35.5973 106.997 35.496 106.613 35.432C106.239 35.368 105.898 35.336 105.589 35.336C105.247 35.336 104.943 35.352 104.677 35.384C104.41 35.416 104.277 35.5067 104.277 35.656C104.277 35.8267 104.426 35.9493 104.725 36.024C105.034 36.0987 105.445 36.216 105.957 36.376C106.533 36.5467 106.981 36.7333 107.301 36.936C107.631 37.1387 107.861 37.384 107.989 37.672C108.127 37.96 108.197 38.3173 108.197 38.744C108.197 39.512 107.882 40.1093 107.253 40.536C106.634 40.952 105.711 41.16 104.485 41.16ZM113.263 41.16C112.378 41.16 111.594 41.016 110.911 40.728C110.239 40.4293 109.711 39.9867 109.327 39.4C108.954 38.8133 108.767 38.088 108.767 37.224C108.767 36.0187 109.109 35.0587 109.791 34.344C110.474 33.6187 111.493 33.256 112.847 33.256C114.085 33.256 115.05 33.5707 115.743 34.2C116.447 34.8293 116.799 35.688 116.799 36.776V38.104H111.535C111.674 38.5093 111.946 38.7973 112.351 38.968C112.757 39.1387 113.306 39.224 113.999 39.224C114.437 39.224 114.874 39.1867 115.311 39.112C115.759 39.0267 116.117 38.9307 116.383 38.824V40.632C115.637 40.984 114.597 41.16 113.263 41.16ZM111.535 36.472H114.207V36.2C114.207 35.9013 114.111 35.656 113.919 35.464C113.738 35.272 113.413 35.176 112.943 35.176C112.421 35.176 112.053 35.288 111.839 35.512C111.637 35.7253 111.535 36.0453 111.535 36.472ZM125.341 41.16C123.965 41.16 122.877 40.8347 122.077 40.184C121.277 39.5227 120.877 38.5307 120.877 37.208C120.877 36.312 121.063 35.5707 121.437 34.984C121.81 34.3973 122.333 33.9653 123.005 33.688C123.677 33.4 124.461 33.256 125.357 33.256C125.922 33.256 126.429 33.2987 126.877 33.384C127.325 33.4587 127.751 33.592 128.157 33.784V35.896C127.527 35.5973 126.813 35.448 126.013 35.448C125.33 35.448 124.813 35.576 124.461 35.832C124.119 36.088 123.949 36.5467 123.949 37.208C123.949 37.8267 124.114 38.2747 124.445 38.552C124.775 38.8293 125.298 38.968 126.013 38.968C126.397 38.968 126.77 38.9253 127.133 38.84C127.495 38.744 127.842 38.6107 128.173 38.44V40.648C127.767 40.8293 127.33 40.9573 126.861 41.032C126.402 41.1173 125.895 41.16 125.341 41.16ZM129.29 41V33.416H132.186L132.266 34.024C132.576 33.8427 132.97 33.6773 133.45 33.528C133.93 33.3787 134.416 33.288 134.906 33.256V35.496C134.629 35.5173 134.325 35.5547 133.994 35.608C133.674 35.6613 133.36 35.7307 133.05 35.816C132.752 35.8907 132.501 35.976 132.298 36.072V41H129.29ZM139.623 41.16C138.737 41.16 137.953 41.016 137.271 40.728C136.599 40.4293 136.071 39.9867 135.687 39.4C135.313 38.8133 135.127 38.088 135.127 37.224C135.127 36.0187 135.468 35.0587 136.151 34.344C136.833 33.6187 137.852 33.256 139.207 33.256C140.444 33.256 141.409 33.5707 142.103 34.2C142.807 34.8293 143.159 35.688 143.159 36.776V38.104H137.895C138.033 38.5093 138.305 38.7973 138.711 38.968C139.116 39.1387 139.665 39.224 140.359 39.224C140.796 39.224 141.233 39.1867 141.671 39.112C142.119 39.0267 142.476 38.9307 142.743 38.824V40.632C141.996 40.984 140.956 41.16 139.623 41.16ZM137.895 36.472H140.567V36.2C140.567 35.9013 140.471 35.656 140.279 35.464C140.097 35.272 139.772 35.176 139.303 35.176C138.78 35.176 138.412 35.288 138.199 35.512C137.996 35.7253 137.895 36.0453 137.895 36.472ZM146.643 41.16C146.163 41.16 145.715 41.0747 145.299 40.904C144.893 40.7333 144.568 40.4667 144.323 40.104C144.077 39.7413 143.955 39.2827 143.955 38.728C143.955 37.928 144.221 37.3093 144.755 36.872C145.288 36.424 146.093 36.2 147.171 36.2H149.139V36.056C149.139 35.7573 149.016 35.5387 148.771 35.4C148.525 35.2613 148.093 35.192 147.475 35.192C146.6 35.192 145.736 35.3253 144.883 35.592V33.784C145.267 33.6347 145.747 33.512 146.323 33.416C146.899 33.3093 147.485 33.256 148.083 33.256C149.288 33.256 150.243 33.5013 150.947 33.992C151.651 34.4827 152.003 35.2613 152.003 36.328V41H149.379L149.235 40.392C148.968 40.6267 148.621 40.8133 148.195 40.952C147.779 41.0907 147.261 41.16 146.643 41.16ZM147.667 39.4C148.008 39.4 148.296 39.3413 148.531 39.224C148.776 39.1067 148.979 38.9627 149.139 38.792V37.848H147.683C147.021 37.848 146.691 38.1093 146.691 38.632C146.691 39.144 147.016 39.4 147.667 39.4ZM156.616 41.16C155.603 41.16 154.867 40.904 154.408 40.392C153.95 39.88 153.72 39.1867 153.72 38.312V35.64H152.728V33.416H153.72V31.864L156.728 31.144V33.416H158.472L158.36 35.64H156.728V38.088C156.728 38.408 156.808 38.6373 156.968 38.776C157.128 38.904 157.374 38.968 157.704 38.968C158.014 38.968 158.328 38.9147 158.648 38.808V40.808C158.083 41.0427 157.406 41.16 156.616 41.16ZM159.975 32.408V30.232H163.223V32.408H159.975ZM160.215 41V35.608H159.111L159.367 33.416H163.223V41H160.215ZM168.777 41.16C167.263 41.16 166.143 40.824 165.417 40.152C164.703 39.48 164.345 38.4987 164.345 37.208C164.345 35.928 164.708 34.952 165.433 34.28C166.159 33.5973 167.273 33.256 168.777 33.256C170.292 33.256 171.412 33.5973 172.137 34.28C172.873 34.952 173.241 35.928 173.241 37.208C173.241 38.4987 172.879 39.48 172.153 40.152C171.428 40.824 170.303 41.16 168.777 41.16ZM168.777 38.968C169.268 38.968 169.62 38.8293 169.833 38.552C170.057 38.2747 170.169 37.8267 170.169 37.208C170.169 36.6 170.057 36.1573 169.833 35.88C169.62 35.592 169.268 35.448 168.777 35.448C168.297 35.448 167.951 35.592 167.737 35.88C167.524 36.1573 167.417 36.6 167.417 37.208C167.417 37.8267 167.524 38.2747 167.737 38.552C167.951 38.8293 168.297 38.968 168.777 38.968ZM174.368 41V33.416H177.184L177.264 33.992C177.552 33.8 177.931 33.6293 178.4 33.48C178.88 33.3307 179.392 33.256 179.936 33.256C180.886 33.256 181.579 33.4907 182.016 33.96C182.454 34.4293 182.672 35.1547 182.672 36.136V41H179.664V36.44C179.664 36.0987 179.59 35.8533 179.44 35.704C179.291 35.5547 179.03 35.48 178.656 35.48C178.432 35.48 178.198 35.5333 177.952 35.64C177.718 35.7467 177.526 35.8747 177.376 36.024V41H174.368ZM191.45 41.16C190.074 41.16 188.986 40.8347 188.186 40.184C187.386 39.5227 186.986 38.5307 186.986 37.208C186.986 36.312 187.173 35.5707 187.546 34.984C187.919 34.3973 188.442 33.9653 189.114 33.688C189.786 33.4 190.57 33.256 191.466 33.256C192.031 33.256 192.538 33.2987 192.986 33.384C193.434 33.4587 193.861 33.592 194.266 33.784V35.896C193.637 35.5973 192.922 35.448 192.122 35.448C191.439 35.448 190.922 35.576 190.57 35.832C190.229 36.088 190.058 36.5467 190.058 37.208C190.058 37.8267 190.223 38.2747 190.554 38.552C190.885 38.8293 191.407 38.968 192.122 38.968C192.506 38.968 192.879 38.9253 193.242 38.84C193.605 38.744 193.951 38.6107 194.282 38.44V40.648C193.877 40.8293 193.439 40.9573 192.97 41.032C192.511 41.1173 192.005 41.16 191.45 41.16ZM199.512 41.16C197.997 41.16 196.877 40.824 196.152 40.152C195.437 39.48 195.08 38.4987 195.08 37.208C195.08 35.928 195.442 34.952 196.168 34.28C196.893 33.5973 198.008 33.256 199.512 33.256C201.026 33.256 202.146 33.5973 202.872 34.28C203.608 34.952 203.976 35.928 203.976 37.208C203.976 38.4987 203.613 39.48 202.888 40.152C202.162 40.824 201.037 41.16 199.512 41.16ZM199.512 38.968C200.002 38.968 200.354 38.8293 200.568 38.552C200.792 38.2747 200.904 37.8267 200.904 37.208C200.904 36.6 200.792 36.1573 200.568 35.88C200.354 35.592 200.002 35.448 199.512 35.448C199.032 35.448 198.685 35.592 198.472 35.88C198.258 36.1573 198.152 36.6 198.152 37.208C198.152 37.8267 198.258 38.2747 198.472 38.552C198.685 38.8293 199.032 38.968 199.512 38.968ZM208.319 41.16C207.604 41.16 206.98 41.0427 206.447 40.808C205.924 40.5627 205.513 40.168 205.215 39.624C204.927 39.08 204.783 38.3547 204.783 37.448C204.783 36.52 204.948 35.7467 205.279 35.128C205.609 34.5093 206.052 34.0453 206.607 33.736C207.161 33.416 207.764 33.256 208.415 33.256C208.767 33.256 209.113 33.2933 209.455 33.368C209.807 33.4427 210.111 33.5493 210.367 33.688V30.216H213.375V41H210.767L210.623 40.408C210.324 40.6427 209.988 40.8293 209.615 40.968C209.252 41.096 208.82 41.16 208.319 41.16ZM209.183 38.984C209.641 38.984 210.036 38.8293 210.367 38.52V35.832C210.068 35.5653 209.673 35.432 209.183 35.432C208.788 35.432 208.468 35.608 208.223 35.96C207.977 36.312 207.855 36.8133 207.855 37.464C207.855 38.104 207.961 38.52 208.175 38.712C208.388 38.8933 208.724 38.984 209.183 38.984ZM218.841 41.16C217.956 41.16 217.172 41.016 216.489 40.728C215.817 40.4293 215.289 39.9867 214.905 39.4C214.532 38.8133 214.345 38.088 214.345 37.224C214.345 36.0187 214.687 35.0587 215.369 34.344C216.052 33.6187 217.071 33.256 218.425 33.256C219.663 33.256 220.628 33.5707 221.321 34.2C222.025 34.8293 222.377 35.688 222.377 36.776V38.104H217.113C217.252 38.5093 217.524 38.7973 217.929 38.968C218.335 39.1387 218.884 39.224 219.577 39.224C220.015 39.224 220.452 39.1867 220.889 39.112C221.337 39.0267 221.695 38.9307 221.961 38.824V40.632C221.215 40.984 220.175 41.16 218.841 41.16ZM217.113 36.472H219.785V36.2C219.785 35.9013 219.689 35.656 219.497 35.464C219.316 35.272 218.991 35.176 218.521 35.176C217.999 35.176 217.631 35.288 217.417 35.512C217.215 35.7253 217.113 36.0453 217.113 36.472Z" fill="white"/>
<defs>
<filter id="filter0_i_1_12" x="0" y="0" width="272" height="72" filterUnits="userSpaceOnUse" color-interpolation-filters="sRGB">
<feFlood flood-opacity="0" result="BackgroundImageFix"/>
<feBlend mode="normal" in="SourceGraphic" in2="BackgroundImageFix" result="shape"/>
<feColorMatrix in="SourceAlpha" type="matrix" values="0 0 0 0 0 0 0 0 0 0 0 0 0 0 0 0 0 0 127 0" result="hardAlpha"/>
<feOffset dy="4"/>
<feGaussianBlur stdDeviation="2"/>
<feComposite in2="hardAlpha" operator="arithmetic" k2="-1" k3="1"/>
<feColorMatrix type="matrix" values="0 0 0 0 0 0 0 0 0 0 0 0 0 0 0 0 0 0 0.25 0"/>
<feBlend mode="normal" in2="shape" result="effect1_innerShadow_1_12"/>
</filter>
<filter id="filter1_bii_1_12" x="-22.6667" y="-22.6667" width="317.333" height="113.333" filterUnits="userSpaceOnUse" color-interpolation-filters="sRGB">
<feFlood flood-opacity="0" result="BackgroundImageFix"/>
<feGaussianBlur in="BackgroundImageFix" stdDeviation="11.3333"/>
<feComposite in2="SourceAlpha" operator="in" result="effect1_backgroundBlur_1_12"/>
<feBlend mode="normal" in="SourceGraphic" in2="effect1_backgroundBlur_1_12" result="shape"/>
<feColorMatrix in="SourceAlpha" type="matrix" values="0 0 0 0 0 0 0 0 0 0 0 0 0 0 0 0 0 0 127 0" result="hardAlpha"/>
<feOffset dx="-11.3333" dy="11.3333"/>
<feGaussianBlur stdDeviation="5.66667"/>
<feComposite in2="hardAlpha" operator="arithmetic" k2="-1" k3="1"/>
<feColorMatrix type="matrix" values="0 0 0 0 1 0 0 0 0 1 0 0 0 0 1 0 0 0 0.1 0"/>
<feBlend mode="normal" in2="shape" result="effect2_innerShadow_1_12"/>
<feColorMatrix in="SourceAlpha" type="matrix" values="0 0 0 0 0 0 0 0 0 0 0 0 0 0 0 0 0 0 127 0" result="hardAlpha"/>
<feOffset dx="11.3333" dy="-11.3333"/>
<feGaussianBlur stdDeviation="5.66667"/>
<feComposite in2="hardAlpha" operator="arithmetic" k2="-1" k3="1"/>
<feColorMatrix type="matrix" values="0 0 0 0 0.124094 0 0 0 0 0.124094 0 0 0 0 0.124094 0 0 0 0.1 0"/>
<feBlend mode="normal" in2="effect2_innerShadow_1_12" result="effect3_innerShadow_1_12"/>
</filter>
</defs>
</svg>
