<svg width="272" height="68" viewBox="0 0 272 68" fill="none" xmlns="http://www.w3.org/2000/svg">
<g filter="url(#filter0_i_1_13)">
<rect width="272" height="68" rx="20" fill="#2A2A2A"/>
</g>
<g filter="url(#filter1_bii_1_13)">
<rect width="272" height="68" rx="20" fill="#2A2A2A" fill-opacity="0.1"/>
</g>
<path d="M37.5325 41V30.696H42.1405C43.1965 30.696 44.0978 30.872 44.8445 31.224C45.5912 31.5653 46.1618 32.12 46.5565 32.888C46.9512 33.6453 47.1485 34.6533 47.1485 35.912C47.1485 37.6827 46.7165 38.9733 45.8525 39.784C44.9885 40.5947 43.7512 41 42.1405 41H37.5325ZM40.5405 38.696H41.7565C42.2578 38.696 42.6792 38.6267 43.0205 38.488C43.3618 38.3387 43.6232 38.0667 43.8045 37.672C43.9858 37.2667 44.0765 36.68 44.0765 35.912C44.0765 35.144 43.9912 34.552 43.8205 34.136C43.6605 33.7093 43.4098 33.416 43.0685 33.256C42.7272 33.0853 42.2898 33 41.7565 33H40.5405V38.696ZM50.4005 41.16C49.9205 41.16 49.4725 41.0747 49.0565 40.904C48.6512 40.7333 48.3258 40.4667 48.0805 40.104C47.8352 39.7413 47.7125 39.2827 47.7125 38.728C47.7125 37.928 47.9792 37.3093 48.5125 36.872C49.0458 36.424 49.8512 36.2 50.9285 36.2H52.8965V36.056C52.8965 35.7573 52.7738 35.5387 52.5285 35.4C52.2832 35.2613 51.8512 35.192 51.2325 35.192C50.3578 35.192 49.4938 35.3253 48.6405 35.592V33.784C49.0245 33.6347 49.5045 33.512 50.0805 33.416C50.6565 33.3093 51.2432 33.256 51.8405 33.256C53.0458 33.256 54.0005 33.5013 54.7045 33.992C55.4085 34.4827 55.7605 35.2613 55.7605 36.328V41H53.1365L52.9925 40.392C52.7258 40.6267 52.3792 40.8133 51.9525 40.952C51.5365 41.0907 51.0192 41.16 50.4005 41.16ZM51.4245 39.4C51.7658 39.4 52.0538 39.3413 52.2885 39.224C52.5338 39.1067 52.7365 38.9627 52.8965 38.792V37.848H51.4405C50.7792 37.848 50.4485 38.1093 50.4485 38.632C50.4485 39.144 50.7738 39.4 51.4245 39.4ZM60.3743 41.16C59.3609 41.16 58.6249 40.904 58.1663 40.392C57.7076 39.88 57.4783 39.1867 57.4783 38.312V35.64H56.4863V33.416H57.4783V31.864L60.4863 31.144V33.416H62.2303L62.1183 35.64H60.4863V38.088C60.4863 38.408 60.5663 38.6373 60.7263 38.776C60.8863 38.904 61.1316 38.968 61.4623 38.968C61.7716 38.968 62.0863 38.9147 62.4063 38.808V40.808C61.8409 41.0427 61.1636 41.16 60.3743 41.16ZM65.5724 41.16C65.0924 41.16 64.6444 41.0747 64.2284 40.904C63.823 40.7333 63.4977 40.4667 63.2524 40.104C63.007 39.7413 62.8844 39.2827 62.8844 38.728C62.8844 37.928 63.151 37.3093 63.6844 36.872C64.2177 36.424 65.023 36.2 66.1004 36.2H68.0684V36.056C68.0684 35.7573 67.9457 35.5387 67.7004 35.4C67.455 35.2613 67.023 35.192 66.4044 35.192C65.5297 35.192 64.6657 35.3253 63.8124 35.592V33.784C64.1964 33.6347 64.6764 33.512 65.2524 33.416C65.8284 33.3093 66.415 33.256 67.0124 33.256C68.2177 33.256 69.1724 33.5013 69.8764 33.992C70.5804 34.4827 70.9324 35.2613 70.9324 36.328V41H68.3084L68.1644 40.392C67.8977 40.6267 67.551 40.8133 67.1244 40.952C66.7084 41.0907 66.191 41.16 65.5724 41.16ZM66.5964 39.4C66.9377 39.4 67.2257 39.3413 67.4604 39.224C67.7057 39.1067 67.9084 38.9627 68.0684 38.792V37.848H66.6124C65.951 37.848 65.6204 38.1093 65.6204 38.632C65.6204 39.144 65.9457 39.4 66.5964 39.4ZM77.3541 41.16C76.8635 41.16 76.4315 41.096 76.0581 40.968C75.6955 40.8293 75.3595 40.6427 75.0501 40.408L74.9061 41H72.2981V30.216H75.3061V33.688C75.5621 33.5493 75.8608 33.4427 76.2021 33.368C76.5541 33.2933 76.9061 33.256 77.2581 33.256C78.3888 33.256 79.2741 33.56 79.9141 34.168C80.5648 34.7653 80.8901 35.7573 80.8901 37.144C80.8901 38.4987 80.5701 39.5067 79.9301 40.168C79.2901 40.8293 78.4315 41.16 77.3541 41.16ZM76.4901 38.984C76.9595 38.984 77.2955 38.8453 77.4981 38.568C77.7115 38.28 77.8181 37.816 77.8181 37.176C77.8181 36.5253 77.7061 36.072 77.4821 35.816C77.2688 35.56 76.9381 35.432 76.4901 35.432C75.9995 35.432 75.6048 35.5653 75.3061 35.832V38.52C75.6368 38.8293 76.0315 38.984 76.4901 38.984ZM84.3849 41.16C83.9049 41.16 83.4569 41.0747 83.0409 40.904C82.6355 40.7333 82.3102 40.4667 82.0649 40.104C81.8195 39.7413 81.6969 39.2827 81.6969 38.728C81.6969 37.928 81.9635 37.3093 82.4969 36.872C83.0302 36.424 83.8355 36.2 84.9129 36.2H86.8809V36.056C86.8809 35.7573 86.7582 35.5387 86.5129 35.4C86.2675 35.2613 85.8355 35.192 85.2169 35.192C84.3422 35.192 83.4782 35.3253 82.6249 35.592V33.784C83.0089 33.6347 83.4889 33.512 84.0649 33.416C84.6409 33.3093 85.2275 33.256 85.8249 33.256C87.0302 33.256 87.9849 33.5013 88.6889 33.992C89.3929 34.4827 89.7449 35.2613 89.7449 36.328V41H87.1209L86.9769 40.392C86.7102 40.6267 86.3635 40.8133 85.9369 40.952C85.5209 41.0907 85.0035 41.16 84.3849 41.16ZM85.4089 39.4C85.7502 39.4 86.0382 39.3413 86.2729 39.224C86.5182 39.1067 86.7209 38.9627 86.8809 38.792V37.848H85.4249C84.7635 37.848 84.4329 38.1093 84.4329 38.632C84.4329 39.144 84.7582 39.4 85.4089 39.4ZM94.0706 41.16C93.42 41.16 92.8066 41.112 92.2306 41.016C91.6653 40.9307 91.2173 40.8187 90.8866 40.68V38.52C91.26 38.6907 91.7026 38.824 92.2146 38.92C92.7373 39.016 93.18 39.064 93.5426 39.064C93.9266 39.064 94.2146 39.0533 94.4066 39.032C94.6093 39.0107 94.7106 38.92 94.7106 38.76C94.7106 38.5787 94.5346 38.44 94.1826 38.344C93.8306 38.248 93.388 38.1093 92.8546 37.928C92.1613 37.6827 91.644 37.3947 91.3026 37.064C90.9613 36.7333 90.7906 36.2533 90.7906 35.624C90.7906 34.8667 91.0893 34.2853 91.6866 33.88C92.284 33.464 93.2226 33.256 94.5026 33.256C94.9933 33.256 95.5 33.2933 96.0226 33.368C96.5453 33.4427 96.956 33.528 97.2546 33.624V35.736C96.9346 35.5973 96.5826 35.496 96.1986 35.432C95.8253 35.368 95.484 35.336 95.1746 35.336C94.8333 35.336 94.5293 35.352 94.2626 35.384C93.996 35.416 93.8626 35.5067 93.8626 35.656C93.8626 35.8267 94.012 35.9493 94.3106 36.024C94.62 36.0987 95.0306 36.216 95.5426 36.376C96.1186 36.5467 96.5666 36.7333 96.8866 36.936C97.2173 37.1387 97.4466 37.384 97.5746 37.672C97.7133 37.96 97.7826 38.3173 97.7826 38.744C97.7826 39.512 97.468 40.1093 96.8386 40.536C96.22 40.952 95.2973 41.16 94.0706 41.16ZM102.849 41.16C101.964 41.16 101.18 41.016 100.497 40.728C99.8251 40.4293 99.2971 39.9867 98.9131 39.4C98.5398 38.8133 98.3531 38.088 98.3531 37.224C98.3531 36.0187 98.6945 35.0587 99.3771 34.344C100.06 33.6187 101.078 33.256 102.433 33.256C103.67 33.256 104.636 33.5707 105.329 34.2C106.033 34.8293 106.385 35.688 106.385 36.776V38.104H101.121C101.26 38.5093 101.532 38.7973 101.937 38.968C102.342 39.1387 102.892 39.224 103.585 39.224C104.022 39.224 104.46 39.1867 104.897 39.112C105.345 39.0267 105.702 38.9307 105.969 38.824V40.632C105.222 40.984 104.182 41.16 102.849 41.16ZM101.121 36.472H103.793V36.2C103.793 35.9013 103.697 35.656 103.505 35.464C103.324 35.272 102.998 35.176 102.529 35.176C102.006 35.176 101.638 35.288 101.425 35.512C101.222 35.7253 101.121 36.0453 101.121 36.472ZM110.783 44.456V33.416H113.391L113.535 34.024C113.844 33.7787 114.18 33.592 114.543 33.464C114.916 33.3253 115.348 33.256 115.839 33.256C116.969 33.256 117.839 33.544 118.447 34.12C119.065 34.6853 119.375 35.6507 119.375 37.016C119.375 38.3707 119.049 39.4 118.399 40.104C117.748 40.808 116.852 41.16 115.711 41.16C114.953 41.16 114.313 41.016 113.791 40.728V44.456H110.783ZM114.943 38.968C115.38 38.968 115.716 38.8133 115.951 38.504C116.185 38.1947 116.303 37.7147 116.303 37.064C116.303 36.4347 116.191 36.008 115.967 35.784C115.753 35.56 115.423 35.448 114.975 35.448C114.527 35.448 114.132 35.5973 113.791 35.896V38.584C113.961 38.712 114.132 38.808 114.303 38.872C114.473 38.936 114.687 38.968 114.943 38.968ZM124.613 41.16C123.099 41.16 121.979 40.824 121.253 40.152C120.539 39.48 120.181 38.4987 120.181 37.208C120.181 35.928 120.544 34.952 121.269 34.28C121.995 33.5973 123.109 33.256 124.613 33.256C126.128 33.256 127.248 33.5973 127.973 34.28C128.709 34.952 129.077 35.928 129.077 37.208C129.077 38.4987 128.715 39.48 127.989 40.152C127.264 40.824 126.139 41.16 124.613 41.16ZM124.613 38.968C125.104 38.968 125.456 38.8293 125.669 38.552C125.893 38.2747 126.005 37.8267 126.005 37.208C126.005 36.6 125.893 36.1573 125.669 35.88C125.456 35.592 125.104 35.448 124.613 35.448C124.133 35.448 123.787 35.592 123.573 35.88C123.36 36.1573 123.253 36.6 123.253 37.208C123.253 37.8267 123.36 38.2747 123.573 38.552C123.787 38.8293 124.133 38.968 124.613 38.968ZM130.204 44.456V33.416H132.812L132.956 34.024C133.266 33.7787 133.602 33.592 133.964 33.464C134.338 33.3253 134.77 33.256 135.26 33.256C136.391 33.256 137.26 33.544 137.868 34.12C138.487 34.6853 138.796 35.6507 138.796 37.016C138.796 38.3707 138.471 39.4 137.82 40.104C137.17 40.808 136.274 41.16 135.132 41.16C134.375 41.16 133.735 41.016 133.212 40.728V44.456H130.204ZM134.364 38.968C134.802 38.968 135.138 38.8133 135.372 38.504C135.607 38.1947 135.724 37.7147 135.724 37.064C135.724 36.4347 135.612 36.008 135.388 35.784C135.175 35.56 134.844 35.448 134.396 35.448C133.948 35.448 133.554 35.5973 133.212 35.896V38.584C133.383 38.712 133.554 38.808 133.724 38.872C133.895 38.936 134.108 38.968 134.364 38.968ZM142.675 41.16C141.79 41.16 141.096 40.9093 140.595 40.408C140.094 39.9067 139.843 39.1707 139.843 38.2V33.416H142.851V37.96C142.851 38.6213 143.187 38.952 143.859 38.952C144.104 38.952 144.344 38.8987 144.579 38.792C144.814 38.6853 145 38.552 145.139 38.392V33.416H148.147V41H145.331L145.251 40.424C144.952 40.6373 144.584 40.8133 144.147 40.952C143.72 41.0907 143.23 41.16 142.675 41.16ZM152.155 41.16C151.227 41.16 150.566 40.9627 150.171 40.568C149.777 40.1733 149.579 39.5547 149.579 38.712V30.216H152.587V38.376C152.587 38.6107 152.635 38.7707 152.731 38.856C152.827 38.9307 152.977 38.968 153.179 38.968C153.318 38.968 153.451 38.9573 153.579 38.936C153.718 38.9147 153.846 38.8827 153.963 38.84V40.84C153.686 40.9467 153.414 41.0267 153.147 41.08C152.891 41.1333 152.561 41.16 152.155 41.16ZM157.057 41.16C156.577 41.16 156.129 41.0747 155.713 40.904C155.307 40.7333 154.982 40.4667 154.737 40.104C154.491 39.7413 154.369 39.2827 154.369 38.728C154.369 37.928 154.635 37.3093 155.169 36.872C155.702 36.424 156.507 36.2 157.585 36.2H159.553V36.056C159.553 35.7573 159.43 35.5387 159.185 35.4C158.939 35.2613 158.507 35.192 157.889 35.192C157.014 35.192 156.15 35.3253 155.297 35.592V33.784C155.681 33.6347 156.161 33.512 156.737 33.416C157.313 33.3093 157.899 33.256 158.497 33.256C159.702 33.256 160.657 33.5013 161.361 33.992C162.065 34.4827 162.417 35.2613 162.417 36.328V41H159.793L159.649 40.392C159.382 40.6267 159.035 40.8133 158.609 40.952C158.193 41.0907 157.675 41.16 157.057 41.16ZM158.081 39.4C158.422 39.4 158.71 39.3413 158.945 39.224C159.19 39.1067 159.393 38.9627 159.553 38.792V37.848H158.097C157.435 37.848 157.105 38.1093 157.105 38.632C157.105 39.144 157.43 39.4 158.081 39.4ZM167.031 41.16C166.017 41.16 165.281 40.904 164.823 40.392C164.364 39.88 164.135 39.1867 164.135 38.312V35.64H163.143V33.416H164.135V31.864L167.143 31.144V33.416H168.887L168.775 35.64H167.143V38.088C167.143 38.408 167.223 38.6373 167.383 38.776C167.543 38.904 167.788 38.968 168.119 38.968C168.428 38.968 168.743 38.9147 169.063 38.808V40.808C168.497 41.0427 167.82 41.16 167.031 41.16ZM170.389 32.408V30.232H173.637V32.408H170.389ZM170.629 41V35.608H169.525L169.781 33.416H173.637V41H170.629ZM179.191 41.16C177.677 41.16 176.557 40.824 175.831 40.152C175.117 39.48 174.759 38.4987 174.759 37.208C174.759 35.928 175.122 34.952 175.847 34.28C176.573 33.5973 177.687 33.256 179.191 33.256C180.706 33.256 181.826 33.5973 182.551 34.28C183.287 34.952 183.655 35.928 183.655 37.208C183.655 38.4987 183.293 39.48 182.567 40.152C181.842 40.824 180.717 41.16 179.191 41.16ZM179.191 38.968C179.682 38.968 180.034 38.8293 180.247 38.552C180.471 38.2747 180.583 37.8267 180.583 37.208C180.583 36.6 180.471 36.1573 180.247 35.88C180.034 35.592 179.682 35.448 179.191 35.448C178.711 35.448 178.365 35.592 178.151 35.88C177.938 36.1573 177.831 36.6 177.831 37.208C177.831 37.8267 177.938 38.2747 178.151 38.552C178.365 38.8293 178.711 38.968 179.191 38.968ZM184.783 41V33.416H187.599L187.679 33.992C187.967 33.8 188.345 33.6293 188.815 33.48C189.295 33.3307 189.807 33.256 190.351 33.256C191.3 33.256 191.993 33.4907 192.431 33.96C192.868 34.4293 193.087 35.1547 193.087 36.136V41H190.079V36.44C190.079 36.0987 190.004 35.8533 189.855 35.704C189.705 35.5547 189.444 35.48 189.071 35.48C188.847 35.48 188.612 35.5333 188.367 35.64C188.132 35.7467 187.94 35.8747 187.791 36.024V41H184.783ZM201.864 41.16C200.488 41.16 199.4 40.8347 198.6 40.184C197.8 39.5227 197.4 38.5307 197.4 37.208C197.4 36.312 197.587 35.5707 197.96 34.984C198.333 34.3973 198.856 33.9653 199.528 33.688C200.2 33.4 200.984 33.256 201.88 33.256C202.445 33.256 202.952 33.2987 203.4 33.384C203.848 33.4587 204.275 33.592 204.68 33.784V35.896C204.051 35.5973 203.336 35.448 202.536 35.448C201.853 35.448 201.336 35.576 200.984 35.832C200.643 36.088 200.472 36.5467 200.472 37.208C200.472 37.8267 200.637 38.2747 200.968 38.552C201.299 38.8293 201.821 38.968 202.536 38.968C202.92 38.968 203.293 38.9253 203.656 38.84C204.019 38.744 204.365 38.6107 204.696 38.44V40.648C204.291 40.8293 203.853 40.9573 203.384 41.032C202.925 41.1173 202.419 41.16 201.864 41.16ZM209.926 41.16C208.411 41.16 207.291 40.824 206.566 40.152C205.851 39.48 205.494 38.4987 205.494 37.208C205.494 35.928 205.856 34.952 206.582 34.28C207.307 33.5973 208.422 33.256 209.926 33.256C211.44 33.256 212.56 33.5973 213.286 34.28C214.022 34.952 214.39 35.928 214.39 37.208C214.39 38.4987 214.027 39.48 213.302 40.152C212.576 40.824 211.451 41.16 209.926 41.16ZM209.926 38.968C210.416 38.968 210.768 38.8293 210.982 38.552C211.206 38.2747 211.318 37.8267 211.318 37.208C211.318 36.6 211.206 36.1573 210.982 35.88C210.768 35.592 210.416 35.448 209.926 35.448C209.446 35.448 209.099 35.592 208.886 35.88C208.672 36.1573 208.566 36.6 208.566 37.208C208.566 37.8267 208.672 38.2747 208.886 38.552C209.099 38.8293 209.446 38.968 209.926 38.968ZM218.733 41.16C218.018 41.16 217.394 41.0427 216.861 40.808C216.338 40.5627 215.928 40.168 215.629 39.624C215.341 39.08 215.197 38.3547 215.197 37.448C215.197 36.52 215.362 35.7467 215.693 35.128C216.024 34.5093 216.466 34.0453 217.021 33.736C217.576 33.416 218.178 33.256 218.829 33.256C219.181 33.256 219.528 33.2933 219.869 33.368C220.221 33.4427 220.525 33.5493 220.781 33.688V30.216H223.789V41H221.181L221.037 40.408C220.738 40.6427 220.402 40.8293 220.029 40.968C219.666 41.096 219.234 41.16 218.733 41.16ZM219.597 38.984C220.056 38.984 220.45 38.8293 220.781 38.52V35.832C220.482 35.5653 220.088 35.432 219.597 35.432C219.202 35.432 218.882 35.608 218.637 35.96C218.392 36.312 218.269 36.8133 218.269 37.464C218.269 38.104 218.376 38.52 218.589 38.712C218.802 38.8933 219.138 38.984 219.597 38.984ZM229.255 41.16C228.37 41.16 227.586 41.016 226.903 40.728C226.231 40.4293 225.703 39.9867 225.319 39.4C224.946 38.8133 224.759 38.088 224.759 37.224C224.759 36.0187 225.101 35.0587 225.783 34.344C226.466 33.6187 227.485 33.256 228.839 33.256C230.077 33.256 231.042 33.5707 231.735 34.2C232.439 34.8293 232.791 35.688 232.791 36.776V38.104H227.527C227.666 38.5093 227.938 38.7973 228.343 38.968C228.749 39.1387 229.298 39.224 229.991 39.224C230.429 39.224 230.866 39.1867 231.303 39.112C231.751 39.0267 232.109 38.9307 232.375 38.824V40.632C231.629 40.984 230.589 41.16 229.255 41.16ZM227.527 36.472H230.199V36.2C230.199 35.9013 230.103 35.656 229.911 35.464C229.73 35.272 229.405 35.176 228.935 35.176C228.413 35.176 228.045 35.288 227.831 35.512C227.629 35.7253 227.527 36.0453 227.527 36.472Z" fill="white"/>
<defs>
<filter id="filter0_i_1_13" x="0" y="0" width="272" height="72" filterUnits="userSpaceOnUse" color-interpolation-filters="sRGB">
<feFlood flood-opacity="0" result="BackgroundImageFix"/>
<feBlend mode="normal" in="SourceGraphic" in2="BackgroundImageFix" result="shape"/>
<feColorMatrix in="SourceAlpha" type="matrix" values="0 0 0 0 0 0 0 0 0 0 0 0 0 0 0 0 0 0 127 0" result="hardAlpha"/>
<feOffset dy="4"/>
<feGaussianBlur stdDeviation="2"/>
<feComposite in2="hardAlpha" operator="arithmetic" k2="-1" k3="1"/>
<feColorMatrix type="matrix" values="0 0 0 0 0 0 0 0 0 0 0 0 0 0 0 0 0 0 0.25 0"/>
<feBlend mode="normal" in2="shape" result="effect1_innerShadow_1_13"/>
</filter>
<filter id="filter1_bii_1_13" x="-22.6667" y="-22.6667" width="317.333" height="113.333" filterUnits="userSpaceOnUse" color-interpolation-filters="sRGB">
<feFlood flood-opacity="0" result="BackgroundImageFix"/>
<feGaussianBlur in="BackgroundImageFix" stdDeviation="11.3333"/>
<feComposite in2="SourceAlpha" operator="in" result="effect1_backgroundBlur_1_13"/>
<feBlend mode="normal" in="SourceGraphic" in2="effect1_backgroundBlur_1_13" result="shape"/>
<feColorMatrix in="SourceAlpha" type="matrix" values="0 0 0 0 0 0 0 0 0 0 0 0 0 0 0 0 0 0 127 0" result="hardAlpha"/>
<feOffset dx="-11.3333" dy="11.3333"/>
<feGaussianBlur stdDeviation="5.66667"/>
<feComposite in2="hardAlpha" operator="arithmetic" k2="-1" k3="1"/>
<feColorMatrix type="matrix" values="0 0 0 0 1 0 0 0 0 1 0 0 0 0 1 0 0 0 0.1 0"/>
<feBlend mode="normal" in2="shape" result="effect2_innerShadow_1_13"/>
<feColorMatrix in="SourceAlpha" type="matrix" values="0 0 0 0 0 0 0 0 0 0 0 0 0 0 0 0 0 0 127 0" result="hardAlpha"/>
<feOffset dx="11.3333" dy="-11.3333"/>
<feGaussianBlur stdDeviation="5.66667"/>
<feComposite in2="hardAlpha" operator="arithmetic" k2="-1" k3="1"/>
<feColorMatrix type="matrix" values="0 0 0 0 0.124094 0 0 0 0 0.124094 0 0 0 0 0.124094 0 0 0 0.1 0"/>
<feBlend mode="normal" in2="effect2_innerShadow_1_13" result="effect3_innerShadow_1_13"/>
</filter>
</defs>
</svg>
